# xmcd
#
# Track frame offsets: 
#        183
#        15208
#        29840
#        43990
#        57633
#        69005
#        82068
#        92293
#        104228
#        122018
#        131528
#        143623
#        153293
#
# Disc length: 2200 seconds
#
# Revision: 0
# Processed by: cddbd v1.4PL0 Copyright (c) Steve Scherf et al.
# Submitted via: ExactAudioCopy v0.90b4
#
DISCID=ac08960d
DTITLE=Ben Waters - Take It Home
DYEAR=1993
DGENRE=Blues
TTITLE0=Down the Road Apiece
TTITLE1=Tipitina
TTITLE2=88 Special
TTITLE3=Sugar B
TTITLE4=Caledonia
TTITLE5=Bring It On Home
TTITLE6=Keep A Knockin'
TTITLE7=Cadillac Boogie
TTITLE8=How Come My Dog Don't Bark
TTITLE9=Mean Woman Blues
TTITLE10=Rockin' Pneumonia
TTITLE11=Wine Spodee-Odee
TTITLE12=Honky Tonk Train
EXTD=
EXTT0=
EXTT1=
EXTT2=
EXTT3=
EXTT4=
EXTT5=
EXTT6=
EXTT7=
EXTT8=
EXTT9=
EXTT10=
EXTT11=
EXTT12=
PLAYORDER=
